<mxfile host="app.diagrams.net" modified="2022-07-14T10:16:43.980Z" agent="5.0 (Macintosh; Intel Mac OS X 10_15_7) AppleWebKit/537.36 (KHTML, like Gecko) Chrome/103.0.0.0 Safari/537.36" etag="WspdbT0JFufyNdV56c1t" version="20.1.1" type="github">
  <diagram id="6r0_a1HDc3w-jd7aQ7qa" name="Page-1">
    <mxGraphModel dx="1639" dy="1686" grid="1" gridSize="10" guides="1" tooltips="1" connect="1" arrows="1" fold="1" page="1" pageScale="1" pageWidth="1169" pageHeight="827" math="0" shadow="0">
      <root>
        <mxCell id="0" />
        <mxCell id="1" parent="0" />
        <mxCell id="DVV-10IRJFf22m86ulkG-14" value="" style="group" parent="1" vertex="1" connectable="0">
          <mxGeometry x="541.5" y="-200" width="250" height="180" as="geometry" />
        </mxCell>
        <mxCell id="DVV-10IRJFf22m86ulkG-13" style="edgeStyle=none;shape=connector;rounded=0;orthogonalLoop=1;jettySize=auto;html=1;entryX=0.5;entryY=1;entryDx=0;entryDy=0;labelBackgroundColor=default;fontFamily=Helvetica;fontSize=11;fontColor=default;endArrow=none;strokeColor=default;exitX=0.5;exitY=1;exitDx=0;exitDy=0;" parent="DVV-10IRJFf22m86ulkG-14" source="DVV-10IRJFf22m86ulkG-10" edge="1">
          <mxGeometry relative="1" as="geometry">
            <mxPoint x="60" y="130" as="sourcePoint" />
            <Array as="points">
              <mxPoint x="60" y="180" />
              <mxPoint x="210" y="180" />
            </Array>
            <mxPoint x="210" y="130" as="targetPoint" />
          </mxGeometry>
        </mxCell>
        <mxCell id="DVV-10IRJFf22m86ulkG-60" value="Xuất" style="rhombus;whiteSpace=wrap;html=1;fillColor=#fff2cc;strokeColor=#d6b656;" parent="1" vertex="1">
          <mxGeometry x="172.5" y="240.5" width="80" height="80" as="geometry" />
        </mxCell>
        <mxCell id="DVV-10IRJFf22m86ulkG-61" style="edgeStyle=none;shape=connector;rounded=0;orthogonalLoop=1;jettySize=auto;html=1;entryX=0.5;entryY=0;entryDx=0;entryDy=0;labelBackgroundColor=default;fontFamily=Helvetica;fontSize=9;fontColor=default;endArrow=none;strokeColor=default;" parent="1" source="DVV-10IRJFf22m86ulkG-51" target="DVV-10IRJFf22m86ulkG-60" edge="1">
          <mxGeometry relative="1" as="geometry" />
        </mxCell>
        <mxCell id="DVV-10IRJFf22m86ulkG-62" style="edgeStyle=none;shape=connector;rounded=0;orthogonalLoop=1;jettySize=auto;html=1;exitX=0.5;exitY=0;exitDx=0;exitDy=0;entryX=0.5;entryY=1;entryDx=0;entryDy=0;labelBackgroundColor=default;fontFamily=Helvetica;fontSize=9;fontColor=default;endArrow=none;strokeColor=default;" parent="1" source="DVV-10IRJFf22m86ulkG-31" target="DVV-10IRJFf22m86ulkG-60" edge="1">
          <mxGeometry relative="1" as="geometry">
            <mxPoint x="212.5" y="343" as="targetPoint" />
          </mxGeometry>
        </mxCell>
        <mxCell id="DVV-10IRJFf22m86ulkG-80" style="edgeStyle=none;shape=connector;rounded=0;orthogonalLoop=1;jettySize=auto;html=1;entryX=1;entryY=1;entryDx=0;entryDy=0;labelBackgroundColor=default;fontFamily=Helvetica;fontSize=9;fontColor=default;endArrow=none;strokeColor=default;exitX=1;exitY=0.5;exitDx=0;exitDy=0;" parent="1" source="DVV-10IRJFf22m86ulkG-84" target="DVV-10IRJFf22m86ulkG-68" edge="1">
          <mxGeometry relative="1" as="geometry">
            <mxPoint x="651.5" y="133" as="sourcePoint" />
          </mxGeometry>
        </mxCell>
        <mxCell id="DVV-10IRJFf22m86ulkG-81" style="edgeStyle=none;shape=connector;rounded=0;orthogonalLoop=1;jettySize=auto;html=1;entryX=0;entryY=0.5;entryDx=0;entryDy=0;labelBackgroundColor=default;fontFamily=Helvetica;fontSize=9;fontColor=default;endArrow=none;strokeColor=default;" parent="1" source="DVV-10IRJFf22m86ulkG-55" target="DVV-10IRJFf22m86ulkG-84" edge="1">
          <mxGeometry relative="1" as="geometry">
            <mxPoint x="642.5" y="133" as="targetPoint" />
          </mxGeometry>
        </mxCell>
        <mxCell id="DVV-10IRJFf22m86ulkG-84" value="được xuất" style="rhombus;whiteSpace=wrap;html=1;fontSize=11;fillColor=#fff2cc;strokeColor=#d6b656;" parent="1" vertex="1">
          <mxGeometry x="616.5" y="93" width="80" height="80" as="geometry" />
        </mxCell>
        <mxCell id="DVV-10IRJFf22m86ulkG-89" value="&amp;nbsp;áp dụng" style="rhombus;whiteSpace=wrap;html=1;rotation=0;fillColor=#fff2cc;strokeColor=#d6b656;" parent="1" vertex="1">
          <mxGeometry x="918.5" y="183" width="80" height="80" as="geometry" />
        </mxCell>
        <mxCell id="DVV-10IRJFf22m86ulkG-93" style="edgeStyle=none;shape=connector;rounded=0;orthogonalLoop=1;jettySize=auto;html=1;labelBackgroundColor=default;fontFamily=Helvetica;fontSize=9;fontColor=default;endArrow=none;strokeColor=default;entryX=1;entryY=0.5;entryDx=0;entryDy=0;exitX=0.433;exitY=1.028;exitDx=0;exitDy=0;exitPerimeter=0;" parent="1" source="DVV-10IRJFf22m86ulkG-213" target="DVV-10IRJFf22m86ulkG-89" edge="1">
          <mxGeometry relative="1" as="geometry">
            <mxPoint x="822.5" y="163" as="sourcePoint" />
            <mxPoint x="742.5" y="233" as="targetPoint" />
            <Array as="points">
              <mxPoint x="1100" y="223" />
            </Array>
          </mxGeometry>
        </mxCell>
        <mxCell id="DVV-10IRJFf22m86ulkG-94" style="edgeStyle=none;shape=connector;rounded=0;orthogonalLoop=1;jettySize=auto;html=1;exitX=1;exitY=0.5;exitDx=0;exitDy=0;entryX=0;entryY=0.5;entryDx=0;entryDy=0;labelBackgroundColor=default;fontFamily=Helvetica;fontSize=9;fontColor=default;endArrow=none;strokeColor=default;" parent="1" source="DVV-10IRJFf22m86ulkG-87" target="DVV-10IRJFf22m86ulkG-89" edge="1">
          <mxGeometry relative="1" as="geometry" />
        </mxCell>
        <mxCell id="3ivktyzrM6rxTPIfOIyR-6" style="edgeStyle=none;shape=connector;rounded=0;orthogonalLoop=1;jettySize=auto;html=1;entryX=0.5;entryY=1;entryDx=0;entryDy=0;labelBackgroundColor=default;fontFamily=Helvetica;fontSize=10;fontColor=default;endArrow=none;strokeColor=default;" edge="1" parent="1" source="DVV-10IRJFf22m86ulkG-104" target="DVV-10IRJFf22m86ulkG-35">
          <mxGeometry relative="1" as="geometry" />
        </mxCell>
        <mxCell id="DVV-10IRJFf22m86ulkG-104" value="&lt;u style=&quot;font-size: 9px;&quot;&gt;mã NCC&lt;/u&gt;" style="ellipse;whiteSpace=wrap;html=1;fontSize=9;fillColor=#f8cecc;strokeColor=#b85450;" parent="1" vertex="1">
          <mxGeometry x="81.25" y="760" width="52.5" height="35" as="geometry" />
        </mxCell>
        <mxCell id="3ivktyzrM6rxTPIfOIyR-8" style="edgeStyle=none;shape=connector;rounded=0;orthogonalLoop=1;jettySize=auto;html=1;entryX=0.5;entryY=1;entryDx=0;entryDy=0;labelBackgroundColor=default;fontFamily=Helvetica;fontSize=10;fontColor=default;endArrow=none;strokeColor=default;" edge="1" parent="1" source="DVV-10IRJFf22m86ulkG-105" target="DVV-10IRJFf22m86ulkG-35">
          <mxGeometry relative="1" as="geometry" />
        </mxCell>
        <mxCell id="DVV-10IRJFf22m86ulkG-105" value="tên NCC" style="ellipse;whiteSpace=wrap;html=1;fontSize=9;fillColor=#f8cecc;strokeColor=#b85450;" parent="1" vertex="1">
          <mxGeometry x="138.75" y="760" width="52.5" height="35" as="geometry" />
        </mxCell>
        <mxCell id="3ivktyzrM6rxTPIfOIyR-9" style="edgeStyle=none;shape=connector;rounded=0;orthogonalLoop=1;jettySize=auto;html=1;entryX=0.5;entryY=1;entryDx=0;entryDy=0;labelBackgroundColor=default;fontFamily=Helvetica;fontSize=10;fontColor=default;endArrow=none;strokeColor=default;" edge="1" parent="1" source="DVV-10IRJFf22m86ulkG-106" target="DVV-10IRJFf22m86ulkG-35">
          <mxGeometry relative="1" as="geometry" />
        </mxCell>
        <mxCell id="DVV-10IRJFf22m86ulkG-106" value="địa chỉ" style="ellipse;whiteSpace=wrap;html=1;fontSize=9;fillColor=#f8cecc;strokeColor=#b85450;" parent="1" vertex="1">
          <mxGeometry x="198.75" y="760" width="52.5" height="35" as="geometry" />
        </mxCell>
        <mxCell id="3ivktyzrM6rxTPIfOIyR-10" style="edgeStyle=none;shape=connector;rounded=0;orthogonalLoop=1;jettySize=auto;html=1;entryX=0.5;entryY=1;entryDx=0;entryDy=0;labelBackgroundColor=default;fontFamily=Helvetica;fontSize=10;fontColor=default;endArrow=none;strokeColor=default;" edge="1" parent="1" source="DVV-10IRJFf22m86ulkG-107" target="DVV-10IRJFf22m86ulkG-35">
          <mxGeometry relative="1" as="geometry" />
        </mxCell>
        <mxCell id="DVV-10IRJFf22m86ulkG-107" value="số&lt;br style=&quot;font-size: 9px;&quot;&gt;điện thoại" style="ellipse;whiteSpace=wrap;html=1;fontSize=9;fillColor=#f8cecc;strokeColor=#b85450;" parent="1" vertex="1">
          <mxGeometry x="261.25" y="760" width="52.5" height="35" as="geometry" />
        </mxCell>
        <mxCell id="DVV-10IRJFf22m86ulkG-112" value="&lt;u style=&quot;font-size: 10px;&quot;&gt;mã PN&lt;/u&gt;" style="ellipse;whiteSpace=wrap;html=1;fontSize=10;fillColor=#f8cecc;strokeColor=#b85450;" parent="1" vertex="1">
          <mxGeometry y="473" width="52.5" height="35" as="geometry" />
        </mxCell>
        <mxCell id="DVV-10IRJFf22m86ulkG-113" value="ngày nhập" style="ellipse;whiteSpace=wrap;html=1;fontSize=10;fillColor=#f8cecc;strokeColor=#b85450;" parent="1" vertex="1">
          <mxGeometry x="62.5" y="473" width="52.5" height="35" as="geometry" />
        </mxCell>
        <mxCell id="DVV-10IRJFf22m86ulkG-116" style="edgeStyle=none;shape=connector;rounded=0;orthogonalLoop=1;jettySize=auto;html=1;entryX=0.5;entryY=0;entryDx=0;entryDy=0;labelBackgroundColor=default;fontFamily=Helvetica;fontSize=9;fontColor=default;endArrow=none;strokeColor=default;exitX=0.5;exitY=1;exitDx=0;exitDy=0;" parent="1" source="DVV-10IRJFf22m86ulkG-31" target="DVV-10IRJFf22m86ulkG-112" edge="1">
          <mxGeometry relative="1" as="geometry" />
        </mxCell>
        <mxCell id="DVV-10IRJFf22m86ulkG-117" style="edgeStyle=none;shape=connector;rounded=0;orthogonalLoop=1;jettySize=auto;html=1;entryX=0.5;entryY=0;entryDx=0;entryDy=0;labelBackgroundColor=default;fontFamily=Helvetica;fontSize=9;fontColor=default;endArrow=none;strokeColor=default;exitX=0.5;exitY=1;exitDx=0;exitDy=0;" parent="1" source="DVV-10IRJFf22m86ulkG-31" target="DVV-10IRJFf22m86ulkG-113" edge="1">
          <mxGeometry relative="1" as="geometry">
            <mxPoint x="242.5" y="443" as="sourcePoint" />
          </mxGeometry>
        </mxCell>
        <mxCell id="DVV-10IRJFf22m86ulkG-123" style="edgeStyle=none;shape=connector;rounded=0;orthogonalLoop=1;jettySize=auto;html=1;labelBackgroundColor=default;fontFamily=Helvetica;fontSize=9;fontColor=default;endArrow=none;strokeColor=default;entryX=0.5;entryY=1;entryDx=0;entryDy=0;dashed=1;" parent="1" source="DVV-10IRJFf22m86ulkG-120" target="DVV-10IRJFf22m86ulkG-31" edge="1">
          <mxGeometry relative="1" as="geometry">
            <mxPoint x="212.5" y="433" as="targetPoint" />
          </mxGeometry>
        </mxCell>
        <mxCell id="DVV-10IRJFf22m86ulkG-120" value="tổng tiền" style="ellipse;whiteSpace=wrap;html=1;fontSize=10;dashed=1;fillColor=#f8cecc;strokeColor=#b85450;" parent="1" vertex="1">
          <mxGeometry x="125" y="473" width="52.5" height="35" as="geometry" />
        </mxCell>
        <mxCell id="DVV-10IRJFf22m86ulkG-128" value="&lt;u style=&quot;font-size: 9px;&quot;&gt;mã NV&lt;/u&gt;" style="ellipse;whiteSpace=wrap;html=1;fontSize=9;fillColor=#f8cecc;strokeColor=#b85450;" parent="1" vertex="1">
          <mxGeometry x="152.5" y="33" width="52.5" height="35" as="geometry" />
        </mxCell>
        <mxCell id="DVV-10IRJFf22m86ulkG-129" value="tên NV" style="ellipse;whiteSpace=wrap;html=1;fontSize=10;fillColor=#f8cecc;strokeColor=#b85450;" parent="1" vertex="1">
          <mxGeometry x="230" y="33" width="52.5" height="35" as="geometry" />
        </mxCell>
        <mxCell id="DVV-10IRJFf22m86ulkG-132" style="edgeStyle=none;shape=connector;rounded=0;orthogonalLoop=1;jettySize=auto;html=1;entryX=0.5;entryY=1;entryDx=0;entryDy=0;labelBackgroundColor=default;fontFamily=Helvetica;fontSize=9;fontColor=default;endArrow=none;strokeColor=default;exitX=0.5;exitY=0;exitDx=0;exitDy=0;" parent="1" source="DVV-10IRJFf22m86ulkG-51" target="DVV-10IRJFf22m86ulkG-128" edge="1">
          <mxGeometry relative="1" as="geometry" />
        </mxCell>
        <mxCell id="DVV-10IRJFf22m86ulkG-133" style="edgeStyle=none;shape=connector;rounded=0;orthogonalLoop=1;jettySize=auto;html=1;entryX=0.5;entryY=1;entryDx=0;entryDy=0;labelBackgroundColor=default;fontFamily=Helvetica;fontSize=9;fontColor=default;endArrow=none;strokeColor=default;exitX=0.5;exitY=0;exitDx=0;exitDy=0;" parent="1" source="DVV-10IRJFf22m86ulkG-51" target="DVV-10IRJFf22m86ulkG-129" edge="1">
          <mxGeometry relative="1" as="geometry" />
        </mxCell>
        <mxCell id="DVV-10IRJFf22m86ulkG-139" style="edgeStyle=none;shape=connector;rounded=0;orthogonalLoop=1;jettySize=auto;html=1;labelBackgroundColor=default;fontFamily=Helvetica;fontSize=9;fontColor=default;endArrow=none;strokeColor=default;entryX=0.5;entryY=1;entryDx=0;entryDy=0;" parent="1" source="DVV-10IRJFf22m86ulkG-134" target="DVV-10IRJFf22m86ulkG-45" edge="1">
          <mxGeometry relative="1" as="geometry">
            <mxPoint x="552.5" y="438" as="targetPoint" />
          </mxGeometry>
        </mxCell>
        <mxCell id="DVV-10IRJFf22m86ulkG-134" value="&lt;u style=&quot;font-size: 10px;&quot;&gt;mã SP&lt;/u&gt;" style="ellipse;whiteSpace=wrap;html=1;fontSize=10;fillColor=#f8cecc;strokeColor=#b85450;" parent="1" vertex="1">
          <mxGeometry x="336.25" y="473" width="52.5" height="35" as="geometry" />
        </mxCell>
        <mxCell id="DVV-10IRJFf22m86ulkG-140" style="edgeStyle=none;shape=connector;rounded=0;orthogonalLoop=1;jettySize=auto;html=1;labelBackgroundColor=default;fontFamily=Helvetica;fontSize=9;fontColor=default;endArrow=none;strokeColor=default;entryX=0.5;entryY=1;entryDx=0;entryDy=0;" parent="1" source="DVV-10IRJFf22m86ulkG-135" target="DVV-10IRJFf22m86ulkG-45" edge="1">
          <mxGeometry relative="1" as="geometry">
            <mxPoint x="542.5" y="443" as="targetPoint" />
          </mxGeometry>
        </mxCell>
        <mxCell id="DVV-10IRJFf22m86ulkG-135" value="tên SP" style="ellipse;whiteSpace=wrap;html=1;fontSize=10;fillColor=#f8cecc;strokeColor=#b85450;" parent="1" vertex="1">
          <mxGeometry x="410" y="473" width="52.5" height="35" as="geometry" />
        </mxCell>
        <mxCell id="DVV-10IRJFf22m86ulkG-146" style="edgeStyle=none;shape=connector;rounded=0;orthogonalLoop=1;jettySize=auto;html=1;entryX=0.5;entryY=0;entryDx=0;entryDy=0;labelBackgroundColor=default;fontFamily=Helvetica;fontSize=9;fontColor=default;endArrow=none;strokeColor=default;exitX=0.5;exitY=1;exitDx=0;exitDy=0;" parent="1" source="DVV-10IRJFf22m86ulkG-208" target="DVV-10IRJFf22m86ulkG-145" edge="1">
          <mxGeometry relative="1" as="geometry">
            <mxPoint x="452.5" y="663" as="sourcePoint" />
          </mxGeometry>
        </mxCell>
        <mxCell id="DVV-10IRJFf22m86ulkG-141" style="edgeStyle=none;shape=connector;rounded=0;orthogonalLoop=1;jettySize=auto;html=1;entryX=0;entryY=0.5;entryDx=0;entryDy=0;labelBackgroundColor=default;fontFamily=Helvetica;fontSize=9;fontColor=default;endArrow=none;strokeColor=default;exitX=0.5;exitY=1;exitDx=0;exitDy=0;" parent="1" source="DVV-10IRJFf22m86ulkG-45" target="DVV-10IRJFf22m86ulkG-199" edge="1">
          <mxGeometry relative="1" as="geometry">
            <mxPoint x="552.5" y="488" as="targetPoint" />
          </mxGeometry>
        </mxCell>
        <mxCell id="DVV-10IRJFf22m86ulkG-142" style="edgeStyle=none;shape=connector;rounded=0;orthogonalLoop=1;jettySize=auto;html=1;entryX=0.5;entryY=0;entryDx=0;entryDy=0;labelBackgroundColor=default;fontFamily=Helvetica;fontSize=9;fontColor=default;endArrow=none;strokeColor=default;exitX=0.5;exitY=1;exitDx=0;exitDy=0;" parent="1" source="DVV-10IRJFf22m86ulkG-45" target="DVV-10IRJFf22m86ulkG-206" edge="1">
          <mxGeometry relative="1" as="geometry">
            <mxPoint x="496.07249999999976" y="488.6300000000001" as="targetPoint" />
          </mxGeometry>
        </mxCell>
        <mxCell id="DVV-10IRJFf22m86ulkG-145" value="&lt;u&gt;mã LSP&lt;/u&gt;" style="ellipse;whiteSpace=wrap;html=1;fontSize=9;fillColor=#f8cecc;strokeColor=#b85450;" parent="1" vertex="1">
          <mxGeometry x="440" y="705.5" width="52.5" height="35" as="geometry" />
        </mxCell>
        <mxCell id="DVV-10IRJFf22m86ulkG-158" style="edgeStyle=none;shape=connector;rounded=0;orthogonalLoop=1;jettySize=auto;html=1;entryX=0.5;entryY=0;entryDx=0;entryDy=0;labelBackgroundColor=default;fontFamily=Helvetica;fontSize=9;fontColor=default;endArrow=none;strokeColor=default;" parent="1" source="DVV-10IRJFf22m86ulkG-152" target="DVV-10IRJFf22m86ulkG-55" edge="1">
          <mxGeometry relative="1" as="geometry" />
        </mxCell>
        <mxCell id="DVV-10IRJFf22m86ulkG-152" value="&lt;u style=&quot;font-size: 9px;&quot;&gt;số HĐ&lt;br style=&quot;font-size: 9px;&quot;&gt;&lt;/u&gt;" style="ellipse;whiteSpace=wrap;html=1;fontSize=9;fillColor=#f8cecc;strokeColor=#b85450;" parent="1" vertex="1">
          <mxGeometry x="429.5" y="23" width="52.5" height="35" as="geometry" />
        </mxCell>
        <mxCell id="DVV-10IRJFf22m86ulkG-159" style="edgeStyle=none;shape=connector;rounded=0;orthogonalLoop=1;jettySize=auto;html=1;entryX=0.5;entryY=0;entryDx=0;entryDy=0;labelBackgroundColor=default;fontFamily=Helvetica;fontSize=9;fontColor=default;endArrow=none;strokeColor=default;" parent="1" source="DVV-10IRJFf22m86ulkG-153" target="DVV-10IRJFf22m86ulkG-55" edge="1">
          <mxGeometry relative="1" as="geometry" />
        </mxCell>
        <mxCell id="DVV-10IRJFf22m86ulkG-153" value="thông tin&lt;br style=&quot;font-size: 9px;&quot;&gt;ngày mua" style="ellipse;whiteSpace=wrap;html=1;fontSize=9;fillColor=#f8cecc;strokeColor=#b85450;" parent="1" vertex="1">
          <mxGeometry x="485.5" y="23" width="52.5" height="35" as="geometry" />
        </mxCell>
        <mxCell id="DVV-10IRJFf22m86ulkG-163" value="tổng tiền" style="ellipse;whiteSpace=wrap;html=1;fontSize=10;dashed=1;fillColor=#f8cecc;strokeColor=#b85450;" parent="1" vertex="1">
          <mxGeometry x="550" y="23" width="52.5" height="35" as="geometry" />
        </mxCell>
        <mxCell id="DVV-10IRJFf22m86ulkG-164" style="edgeStyle=none;shape=connector;rounded=0;orthogonalLoop=1;jettySize=auto;html=1;entryX=0.5;entryY=1;entryDx=0;entryDy=0;labelBackgroundColor=default;fontFamily=Helvetica;fontSize=9;fontColor=default;endArrow=none;strokeColor=default;exitX=0.5;exitY=0;exitDx=0;exitDy=0;dashed=1;" parent="1" source="DVV-10IRJFf22m86ulkG-55" target="DVV-10IRJFf22m86ulkG-163" edge="1">
          <mxGeometry relative="1" as="geometry" />
        </mxCell>
        <mxCell id="DVV-10IRJFf22m86ulkG-169" style="edgeStyle=none;shape=connector;rounded=0;orthogonalLoop=1;jettySize=auto;html=1;entryX=0.5;entryY=0;entryDx=0;entryDy=0;labelBackgroundColor=default;fontFamily=Helvetica;fontSize=9;fontColor=default;endArrow=none;strokeColor=default;exitX=0.5;exitY=1;exitDx=0;exitDy=0;" parent="1" source="DVV-10IRJFf22m86ulkG-165" target="DVV-10IRJFf22m86ulkG-67" edge="1">
          <mxGeometry relative="1" as="geometry" />
        </mxCell>
        <mxCell id="DVV-10IRJFf22m86ulkG-165" value="&lt;u style=&quot;font-size: 9px;&quot;&gt;mã KH&lt;br style=&quot;font-size: 9px;&quot;&gt;&lt;/u&gt;" style="ellipse;whiteSpace=wrap;html=1;fontSize=9;fillColor=#f8cecc;strokeColor=#b85450;" parent="1" vertex="1">
          <mxGeometry x="699.5" y="23" width="52.5" height="35" as="geometry" />
        </mxCell>
        <mxCell id="DVV-10IRJFf22m86ulkG-170" style="edgeStyle=none;shape=connector;rounded=0;orthogonalLoop=1;jettySize=auto;html=1;entryX=0.5;entryY=0;entryDx=0;entryDy=0;labelBackgroundColor=default;fontFamily=Helvetica;fontSize=9;fontColor=default;endArrow=none;strokeColor=default;" parent="1" source="DVV-10IRJFf22m86ulkG-166" target="DVV-10IRJFf22m86ulkG-67" edge="1">
          <mxGeometry relative="1" as="geometry" />
        </mxCell>
        <mxCell id="DVV-10IRJFf22m86ulkG-166" value="&amp;nbsp;tên KH" style="ellipse;whiteSpace=wrap;html=1;fontSize=9;fillColor=#f8cecc;strokeColor=#b85450;" parent="1" vertex="1">
          <mxGeometry x="772.5" y="23" width="52.5" height="35" as="geometry" />
        </mxCell>
        <mxCell id="DVV-10IRJFf22m86ulkG-171" style="edgeStyle=none;shape=connector;rounded=0;orthogonalLoop=1;jettySize=auto;html=1;labelBackgroundColor=default;fontFamily=Helvetica;fontSize=9;fontColor=default;endArrow=none;strokeColor=default;entryX=0.5;entryY=0;entryDx=0;entryDy=0;" parent="1" source="DVV-10IRJFf22m86ulkG-167" target="DVV-10IRJFf22m86ulkG-67" edge="1">
          <mxGeometry relative="1" as="geometry">
            <mxPoint x="812.5" y="103" as="targetPoint" />
          </mxGeometry>
        </mxCell>
        <mxCell id="DVV-10IRJFf22m86ulkG-167" value="số cmnd" style="ellipse;whiteSpace=wrap;html=1;fontSize=10;fillColor=#f8cecc;strokeColor=#b85450;" parent="1" vertex="1">
          <mxGeometry x="833.75" y="23" width="52.5" height="35" as="geometry" />
        </mxCell>
        <mxCell id="DVV-10IRJFf22m86ulkG-174" style="edgeStyle=none;shape=connector;rounded=0;orthogonalLoop=1;jettySize=auto;html=1;labelBackgroundColor=default;fontFamily=Helvetica;fontSize=9;fontColor=default;endArrow=none;strokeColor=default;entryX=0.5;entryY=0;entryDx=0;entryDy=0;" parent="1" source="DVV-10IRJFf22m86ulkG-173" target="DVV-10IRJFf22m86ulkG-67" edge="1">
          <mxGeometry relative="1" as="geometry">
            <mxPoint x="732.5" y="103" as="targetPoint" />
          </mxGeometry>
        </mxCell>
        <mxCell id="DVV-10IRJFf22m86ulkG-173" value="ngày sinh" style="ellipse;whiteSpace=wrap;html=1;fontSize=10;fillColor=#f8cecc;strokeColor=#b85450;" parent="1" vertex="1">
          <mxGeometry x="908.1199999999999" y="23" width="52.5" height="35" as="geometry" />
        </mxCell>
        <mxCell id="DVV-10IRJFf22m86ulkG-180" style="edgeStyle=none;shape=connector;rounded=0;orthogonalLoop=1;jettySize=auto;html=1;labelBackgroundColor=default;fontFamily=Helvetica;fontSize=10;fontColor=default;endArrow=none;strokeColor=default;" parent="1" source="DVV-10IRJFf22m86ulkG-178" target="DVV-10IRJFf22m86ulkG-87" edge="1">
          <mxGeometry relative="1" as="geometry" />
        </mxCell>
        <mxCell id="DVV-10IRJFf22m86ulkG-178" value="áp dụng" style="rhombus;whiteSpace=wrap;html=1;rotation=0;fillColor=#fff2cc;strokeColor=#d6b656;" parent="1" vertex="1">
          <mxGeometry x="616.5" y="183" width="80" height="80" as="geometry" />
        </mxCell>
        <mxCell id="DVV-10IRJFf22m86ulkG-179" style="edgeStyle=none;shape=connector;rounded=0;orthogonalLoop=1;jettySize=auto;html=1;entryX=0;entryY=0.5;entryDx=0;entryDy=0;labelBackgroundColor=default;fontFamily=Helvetica;fontSize=10;fontColor=default;endArrow=none;strokeColor=default;exitX=0.682;exitY=0.998;exitDx=0;exitDy=0;exitPerimeter=0;" parent="1" source="DVV-10IRJFf22m86ulkG-55" target="DVV-10IRJFf22m86ulkG-178" edge="1">
          <mxGeometry relative="1" as="geometry">
            <Array as="points">
              <mxPoint x="534.5" y="223" />
            </Array>
          </mxGeometry>
        </mxCell>
        <mxCell id="DVV-10IRJFf22m86ulkG-88" value="(1,n)" style="text;html=1;strokeColor=none;fillColor=none;align=center;verticalAlign=middle;whiteSpace=wrap;rounded=0;fontFamily=Helvetica;fontSize=9;fontColor=default;" parent="1" vertex="1">
          <mxGeometry x="878.13" y="203" width="30" height="20" as="geometry" />
        </mxCell>
        <mxCell id="DVV-10IRJFf22m86ulkG-189" style="edgeStyle=none;shape=connector;rounded=0;orthogonalLoop=1;jettySize=auto;html=1;entryX=0.5;entryY=0;entryDx=0;entryDy=0;labelBackgroundColor=default;fontFamily=Helvetica;fontSize=10;fontColor=default;endArrow=none;strokeColor=default;" parent="1" source="DVV-10IRJFf22m86ulkG-29" target="DVV-10IRJFf22m86ulkG-35" edge="1">
          <mxGeometry relative="1" as="geometry" />
        </mxCell>
        <mxCell id="DVV-10IRJFf22m86ulkG-29" value="có thông tin" style="rhombus;whiteSpace=wrap;html=1;fillColor=#fff2cc;strokeColor=#d6b656;" parent="1" vertex="1">
          <mxGeometry x="162.5" y="505.5" width="80" height="80" as="geometry" />
        </mxCell>
        <mxCell id="DVV-10IRJFf22m86ulkG-33" style="edgeStyle=none;shape=connector;rounded=0;orthogonalLoop=1;jettySize=auto;html=1;labelBackgroundColor=default;fontFamily=Helvetica;fontSize=11;fontColor=default;endArrow=none;strokeColor=default;" parent="1" source="DVV-10IRJFf22m86ulkG-31" target="DVV-10IRJFf22m86ulkG-29" edge="1">
          <mxGeometry relative="1" as="geometry" />
        </mxCell>
        <mxCell id="DVV-10IRJFf22m86ulkG-65" value="(1,1)" style="text;html=1;strokeColor=none;fillColor=none;align=center;verticalAlign=middle;whiteSpace=wrap;rounded=0;fontFamily=Helvetica;fontSize=9;fontColor=default;" parent="1" vertex="1">
          <mxGeometry x="182.5" y="358" width="30" height="20" as="geometry" />
        </mxCell>
        <mxCell id="DVV-10IRJFf22m86ulkG-195" style="edgeStyle=none;shape=connector;rounded=0;orthogonalLoop=1;jettySize=auto;html=1;entryX=0;entryY=0.5;entryDx=0;entryDy=0;labelBackgroundColor=default;fontFamily=Helvetica;fontSize=10;fontColor=default;endArrow=none;strokeColor=default;" parent="1" source="DVV-10IRJFf22m86ulkG-39" target="DVV-10IRJFf22m86ulkG-41" edge="1">
          <mxGeometry relative="1" as="geometry" />
        </mxCell>
        <mxCell id="DVV-10IRJFf22m86ulkG-39" value="được bố trí" style="rhombus;whiteSpace=wrap;html=1;fontSize=10;fillColor=#fff2cc;strokeColor=#d6b656;" parent="1" vertex="1">
          <mxGeometry x="632.5" y="368" width="80" height="80" as="geometry" />
        </mxCell>
        <mxCell id="DVV-10IRJFf22m86ulkG-194" style="edgeStyle=none;shape=connector;rounded=0;orthogonalLoop=1;jettySize=auto;html=1;labelBackgroundColor=default;fontFamily=Helvetica;fontSize=10;fontColor=default;endArrow=none;strokeColor=default;" parent="1" source="DVV-10IRJFf22m86ulkG-45" target="DVV-10IRJFf22m86ulkG-39" edge="1">
          <mxGeometry relative="1" as="geometry" />
        </mxCell>
        <mxCell id="DVV-10IRJFf22m86ulkG-45" value="Sản phẩm&lt;br&gt;(SP)*" style="rounded=0;whiteSpace=wrap;html=1;fillColor=#d5e8d4;strokeColor=#82b366;" parent="1" vertex="1">
          <mxGeometry x="462.5" y="378" width="120" height="60" as="geometry" />
        </mxCell>
        <mxCell id="DVV-10IRJFf22m86ulkG-187" style="edgeStyle=none;shape=connector;rounded=0;orthogonalLoop=1;jettySize=auto;html=1;entryX=0;entryY=0.5;entryDx=0;entryDy=0;labelBackgroundColor=default;fontFamily=Helvetica;fontSize=10;fontColor=default;endArrow=none;strokeColor=default;" parent="1" source="DVV-10IRJFf22m86ulkG-31" target="DVV-10IRJFf22m86ulkG-186" edge="1">
          <mxGeometry relative="1" as="geometry" />
        </mxCell>
        <mxCell id="DVV-10IRJFf22m86ulkG-31" value="Phiếu nhập&lt;br&gt;(PN)" style="rounded=0;whiteSpace=wrap;html=1;fillColor=#d5e8d4;strokeColor=#82b366;" parent="1" vertex="1">
          <mxGeometry x="152.5" y="378" width="120" height="60" as="geometry" />
        </mxCell>
        <mxCell id="DVV-10IRJFf22m86ulkG-32" value="(1,n)" style="text;html=1;strokeColor=none;fillColor=none;align=center;verticalAlign=middle;whiteSpace=wrap;rounded=0;fontFamily=Helvetica;fontSize=9;fontColor=default;" parent="1" vertex="1">
          <mxGeometry x="272.5" y="388" width="30" height="20" as="geometry" />
        </mxCell>
        <mxCell id="DVV-10IRJFf22m86ulkG-63" style="edgeStyle=none;shape=connector;rounded=0;orthogonalLoop=1;jettySize=auto;html=1;exitX=0;exitY=0.5;exitDx=0;exitDy=0;labelBackgroundColor=default;fontFamily=Helvetica;fontSize=9;fontColor=default;endArrow=none;strokeColor=default;" parent="1" source="DVV-10IRJFf22m86ulkG-31" target="DVV-10IRJFf22m86ulkG-31" edge="1">
          <mxGeometry relative="1" as="geometry" />
        </mxCell>
        <mxCell id="DVV-10IRJFf22m86ulkG-188" style="edgeStyle=none;shape=connector;rounded=0;orthogonalLoop=1;jettySize=auto;html=1;labelBackgroundColor=default;fontFamily=Helvetica;fontSize=10;fontColor=default;endArrow=none;strokeColor=default;" parent="1" source="DVV-10IRJFf22m86ulkG-186" target="DVV-10IRJFf22m86ulkG-45" edge="1">
          <mxGeometry relative="1" as="geometry" />
        </mxCell>
        <mxCell id="DVV-10IRJFf22m86ulkG-232" style="edgeStyle=none;shape=connector;rounded=0;orthogonalLoop=1;jettySize=auto;html=1;exitX=1;exitY=0;exitDx=0;exitDy=0;entryX=0.5;entryY=1;entryDx=0;entryDy=0;labelBackgroundColor=default;fontFamily=Helvetica;fontSize=11;fontColor=default;endArrow=none;strokeColor=default;" parent="1" source="DVV-10IRJFf22m86ulkG-186" target="DVV-10IRJFf22m86ulkG-231" edge="1">
          <mxGeometry relative="1" as="geometry" />
        </mxCell>
        <mxCell id="DVV-10IRJFf22m86ulkG-186" value="có thông tin" style="rhombus;whiteSpace=wrap;html=1;fillColor=#fff2cc;strokeColor=#d6b656;" parent="1" vertex="1">
          <mxGeometry x="326.5" y="368" width="80" height="80" as="geometry" />
        </mxCell>
        <mxCell id="DVV-10IRJFf22m86ulkG-148" value="&lt;u&gt;thông tin&lt;br&gt;vị trí QH&lt;/u&gt;" style="ellipse;whiteSpace=wrap;html=1;fontSize=10;fillColor=#f8cecc;strokeColor=#b85450;" parent="1" vertex="1">
          <mxGeometry x="764.38" y="313" width="58.12" height="42" as="geometry" />
        </mxCell>
        <mxCell id="DVV-10IRJFf22m86ulkG-221" style="edgeStyle=none;shape=connector;rounded=0;orthogonalLoop=1;jettySize=auto;html=1;exitX=0.5;exitY=0;exitDx=0;exitDy=0;labelBackgroundColor=default;fontFamily=Helvetica;fontSize=10;fontColor=default;endArrow=none;strokeColor=default;" parent="1" source="DVV-10IRJFf22m86ulkG-41" target="DVV-10IRJFf22m86ulkG-148" edge="1">
          <mxGeometry relative="1" as="geometry" />
        </mxCell>
        <mxCell id="DVV-10IRJFf22m86ulkG-41" value="Quầy hàng&lt;br&gt;(QH)" style="rounded=0;whiteSpace=wrap;html=1;fillColor=#d5e8d4;strokeColor=#82b366;" parent="1" vertex="1">
          <mxGeometry x="757.5" y="378" width="120" height="60" as="geometry" />
        </mxCell>
        <mxCell id="DVV-10IRJFf22m86ulkG-49" value="xuất" style="rhombus;whiteSpace=wrap;html=1;fillColor=#fff2cc;strokeColor=#d6b656;" parent="1" vertex="1">
          <mxGeometry x="322.5" y="93" width="80" height="80" as="geometry" />
        </mxCell>
        <mxCell id="DVV-10IRJFf22m86ulkG-53" style="edgeStyle=none;shape=connector;rounded=0;orthogonalLoop=1;jettySize=auto;html=1;labelBackgroundColor=default;fontFamily=Helvetica;fontSize=11;fontColor=default;endArrow=none;strokeColor=default;" parent="1" source="DVV-10IRJFf22m86ulkG-51" target="DVV-10IRJFf22m86ulkG-49" edge="1">
          <mxGeometry relative="1" as="geometry" />
        </mxCell>
        <mxCell id="DVV-10IRJFf22m86ulkG-57" style="edgeStyle=none;shape=connector;rounded=0;orthogonalLoop=1;jettySize=auto;html=1;entryX=0;entryY=0.5;entryDx=0;entryDy=0;labelBackgroundColor=default;fontFamily=Helvetica;fontSize=11;fontColor=default;endArrow=none;strokeColor=default;" parent="1" source="DVV-10IRJFf22m86ulkG-49" target="DVV-10IRJFf22m86ulkG-55" edge="1">
          <mxGeometry relative="1" as="geometry" />
        </mxCell>
        <mxCell id="DVV-10IRJFf22m86ulkG-64" value="(0,n)" style="text;html=1;strokeColor=none;fillColor=none;align=center;verticalAlign=middle;whiteSpace=wrap;rounded=0;fontFamily=Helvetica;fontSize=9;fontColor=default;" parent="1" vertex="1">
          <mxGeometry x="182.5" y="163" width="30" height="20" as="geometry" />
        </mxCell>
        <mxCell id="DVV-10IRJFf22m86ulkG-197" style="edgeStyle=none;shape=connector;rounded=0;orthogonalLoop=1;jettySize=auto;html=1;entryX=0.5;entryY=0;entryDx=0;entryDy=0;labelBackgroundColor=default;fontFamily=Helvetica;fontSize=10;fontColor=default;endArrow=none;strokeColor=default;" parent="1" source="DVV-10IRJFf22m86ulkG-55" target="DVV-10IRJFf22m86ulkG-196" edge="1">
          <mxGeometry relative="1" as="geometry" />
        </mxCell>
        <mxCell id="DVV-10IRJFf22m86ulkG-55" value="Hoá đơn&lt;br&gt;(HĐ)" style="rounded=0;whiteSpace=wrap;html=1;fillColor=#d5e8d4;strokeColor=#82b366;" parent="1" vertex="1">
          <mxGeometry x="452.5" y="103" width="120" height="60" as="geometry" />
        </mxCell>
        <mxCell id="DVV-10IRJFf22m86ulkG-56" value="(1,1)" style="text;html=1;strokeColor=none;fillColor=none;align=center;verticalAlign=middle;whiteSpace=wrap;rounded=0;fontFamily=Helvetica;fontSize=9;fontColor=default;" parent="1" vertex="1">
          <mxGeometry x="422.5" y="113" width="30" height="20" as="geometry" />
        </mxCell>
        <mxCell id="DVV-10IRJFf22m86ulkG-181" value="(1,1)" style="text;html=1;strokeColor=none;fillColor=none;align=center;verticalAlign=middle;whiteSpace=wrap;rounded=0;fontFamily=Helvetica;fontSize=9;fontColor=default;" parent="1" vertex="1">
          <mxGeometry x="534" y="163" width="30" height="20" as="geometry" />
        </mxCell>
        <mxCell id="DVV-10IRJFf22m86ulkG-85" value="&lt;meta charset=&quot;utf-8&quot;&gt;&lt;span style=&quot;color: rgb(0, 0, 0); font-family: Helvetica; font-size: 9px; font-style: normal; font-variant-ligatures: normal; font-variant-caps: normal; font-weight: 400; letter-spacing: normal; orphans: 2; text-indent: 0px; text-transform: none; widows: 2; word-spacing: 0px; -webkit-text-stroke-width: 0px; background-color: rgb(248, 249, 250); text-decoration-thickness: initial; text-decoration-style: initial; text-decoration-color: initial; float: none; display: inline !important;&quot;&gt;(1,1)&lt;/span&gt;" style="text;whiteSpace=wrap;html=1;fontSize=9;fontFamily=Helvetica;fontColor=default;align=center;" parent="1" vertex="1">
          <mxGeometry x="572.5" y="113" width="30" height="20" as="geometry" />
        </mxCell>
        <mxCell id="DVV-10IRJFf22m86ulkG-198" style="edgeStyle=none;shape=connector;rounded=0;orthogonalLoop=1;jettySize=auto;html=1;labelBackgroundColor=default;fontFamily=Helvetica;fontSize=10;fontColor=default;endArrow=none;strokeColor=default;exitX=0.5;exitY=1;exitDx=0;exitDy=0;entryX=0.416;entryY=-0.001;entryDx=0;entryDy=0;entryPerimeter=0;" parent="1" source="DVV-10IRJFf22m86ulkG-196" target="DVV-10IRJFf22m86ulkG-45" edge="1">
          <mxGeometry relative="1" as="geometry">
            <mxPoint x="512.5" y="373" as="targetPoint" />
          </mxGeometry>
        </mxCell>
        <mxCell id="DVV-10IRJFf22m86ulkG-196" value="&amp;nbsp;có thông tin" style="rhombus;whiteSpace=wrap;html=1;fillColor=#fff2cc;strokeColor=#d6b656;" parent="1" vertex="1">
          <mxGeometry x="472.5" y="243" width="80" height="80" as="geometry" />
        </mxCell>
        <mxCell id="DVV-10IRJFf22m86ulkG-203" style="edgeStyle=none;shape=connector;rounded=0;orthogonalLoop=1;jettySize=auto;html=1;entryX=1;entryY=1;entryDx=0;entryDy=0;labelBackgroundColor=default;fontFamily=Helvetica;fontSize=10;fontColor=default;endArrow=none;strokeColor=default;exitX=1;exitY=0.5;exitDx=0;exitDy=0;" parent="1" source="DVV-10IRJFf22m86ulkG-199" target="DVV-10IRJFf22m86ulkG-202" edge="1">
          <mxGeometry relative="1" as="geometry" />
        </mxCell>
        <mxCell id="DVV-10IRJFf22m86ulkG-199" value="có thông tin" style="rhombus;whiteSpace=wrap;html=1;fillColor=#fff2cc;strokeColor=#d6b656;" parent="1" vertex="1">
          <mxGeometry x="632.5" y="473" width="80" height="80" as="geometry" />
        </mxCell>
        <mxCell id="DVV-10IRJFf22m86ulkG-204" value="&lt;u&gt;mã NSX&lt;/u&gt;" style="ellipse;whiteSpace=wrap;html=1;fontSize=9;fillColor=#f8cecc;strokeColor=#b85450;" parent="1" vertex="1">
          <mxGeometry x="755.38" y="585.5" width="52.5" height="35" as="geometry" />
        </mxCell>
        <mxCell id="DVV-10IRJFf22m86ulkG-205" style="edgeStyle=none;shape=connector;rounded=0;orthogonalLoop=1;jettySize=auto;html=1;entryX=0.5;entryY=0;entryDx=0;entryDy=0;labelBackgroundColor=default;fontFamily=Helvetica;fontSize=10;fontColor=default;endArrow=none;strokeColor=default;" parent="1" source="DVV-10IRJFf22m86ulkG-201" target="DVV-10IRJFf22m86ulkG-204" edge="1">
          <mxGeometry relative="1" as="geometry" />
        </mxCell>
        <mxCell id="DVV-10IRJFf22m86ulkG-210" style="edgeStyle=none;shape=connector;rounded=0;orthogonalLoop=1;jettySize=auto;html=1;labelBackgroundColor=default;fontFamily=Helvetica;fontSize=10;fontColor=default;endArrow=none;strokeColor=default;exitX=0.5;exitY=1;exitDx=0;exitDy=0;" parent="1" source="DVV-10IRJFf22m86ulkG-206" target="DVV-10IRJFf22m86ulkG-208" edge="1">
          <mxGeometry relative="1" as="geometry">
            <mxPoint x="522.5" y="573" as="sourcePoint" />
          </mxGeometry>
        </mxCell>
        <mxCell id="DVV-10IRJFf22m86ulkG-206" value="có thông tin" style="rhombus;whiteSpace=wrap;html=1;fillColor=#fff2cc;strokeColor=#d6b656;" parent="1" vertex="1">
          <mxGeometry x="482" y="490.5" width="80" height="80" as="geometry" />
        </mxCell>
        <mxCell id="DVV-10IRJFf22m86ulkG-218" style="edgeStyle=none;shape=connector;rounded=0;orthogonalLoop=1;jettySize=auto;html=1;entryX=1;entryY=1;entryDx=0;entryDy=0;labelBackgroundColor=default;fontFamily=Helvetica;fontSize=10;fontColor=default;endArrow=none;strokeColor=default;" parent="1" source="DVV-10IRJFf22m86ulkG-211" target="DVV-10IRJFf22m86ulkG-214" edge="1">
          <mxGeometry relative="1" as="geometry" />
        </mxCell>
        <mxCell id="DVV-10IRJFf22m86ulkG-211" value="được&lt;br&gt;phân loại" style="rhombus;whiteSpace=wrap;html=1;fillColor=#fff2cc;strokeColor=#d6b656;" parent="1" vertex="1">
          <mxGeometry x="918.5" y="93" width="80" height="80" as="geometry" />
        </mxCell>
        <mxCell id="DVV-10IRJFf22m86ulkG-215" value="&lt;u&gt;mã LKH&lt;/u&gt;" style="ellipse;whiteSpace=wrap;html=1;fontSize=9;fillColor=#f8cecc;strokeColor=#b85450;" parent="1" vertex="1">
          <mxGeometry x="1064.06" y="23" width="52.5" height="35" as="geometry" />
        </mxCell>
        <mxCell id="DVV-10IRJFf22m86ulkG-217" style="edgeStyle=none;shape=connector;rounded=0;orthogonalLoop=1;jettySize=auto;html=1;entryX=0;entryY=0.5;entryDx=0;entryDy=0;labelBackgroundColor=default;fontFamily=Helvetica;fontSize=10;fontColor=default;endArrow=none;strokeColor=default;" parent="1" source="DVV-10IRJFf22m86ulkG-67" target="DVV-10IRJFf22m86ulkG-211" edge="1">
          <mxGeometry relative="1" as="geometry" />
        </mxCell>
        <mxCell id="DVV-10IRJFf22m86ulkG-219" style="edgeStyle=none;shape=connector;rounded=0;orthogonalLoop=1;jettySize=auto;html=1;entryX=0.5;entryY=1;entryDx=0;entryDy=0;labelBackgroundColor=default;fontFamily=Helvetica;fontSize=10;fontColor=default;endArrow=none;strokeColor=default;" parent="1" source="DVV-10IRJFf22m86ulkG-213" target="DVV-10IRJFf22m86ulkG-215" edge="1">
          <mxGeometry relative="1" as="geometry">
            <mxPoint x="1140.75" y="48" as="targetPoint" />
          </mxGeometry>
        </mxCell>
        <mxCell id="DVV-10IRJFf22m86ulkG-220" value="(1,1)" style="text;html=1;strokeColor=none;fillColor=none;align=center;verticalAlign=middle;whiteSpace=wrap;rounded=0;fontFamily=Helvetica;fontSize=9;fontColor=default;" parent="1" vertex="1">
          <mxGeometry x="878.13" y="113" width="30" height="20" as="geometry" />
        </mxCell>
        <mxCell id="DVV-10IRJFf22m86ulkG-209" value="(0,n)" style="text;html=1;strokeColor=none;fillColor=none;align=center;verticalAlign=middle;whiteSpace=wrap;rounded=0;fontFamily=Helvetica;fontSize=9;fontColor=default;" parent="1" vertex="1">
          <mxGeometry x="492.5" y="603" width="30" height="20" as="geometry" />
        </mxCell>
        <mxCell id="DVV-10IRJFf22m86ulkG-223" value="(1,1)" style="text;html=1;strokeColor=none;fillColor=none;align=center;verticalAlign=middle;whiteSpace=wrap;rounded=0;fontFamily=Helvetica;fontSize=9;fontColor=default;" parent="1" vertex="1">
          <mxGeometry x="492.5" y="463" width="30" height="20" as="geometry" />
        </mxCell>
        <mxCell id="DVV-10IRJFf22m86ulkG-224" value="(1,1)" style="text;html=1;strokeColor=none;fillColor=none;align=center;verticalAlign=middle;whiteSpace=wrap;rounded=0;fontFamily=Helvetica;fontSize=9;fontColor=default;" parent="1" vertex="1">
          <mxGeometry x="552.5" y="438" width="30" height="20" as="geometry" />
        </mxCell>
        <mxCell id="DVV-10IRJFf22m86ulkG-225" value="(1,n)" style="text;html=1;strokeColor=none;fillColor=none;align=center;verticalAlign=middle;whiteSpace=wrap;rounded=0;fontFamily=Helvetica;fontSize=9;fontColor=default;" parent="1" vertex="1">
          <mxGeometry x="583" y="388" width="30" height="20" as="geometry" />
        </mxCell>
        <mxCell id="DVV-10IRJFf22m86ulkG-226" value="(1,n)" style="text;html=1;strokeColor=none;fillColor=none;align=center;verticalAlign=middle;whiteSpace=wrap;rounded=0;fontFamily=Helvetica;fontSize=9;fontColor=default;" parent="1" vertex="1">
          <mxGeometry x="727.5" y="388" width="30" height="20" as="geometry" />
        </mxCell>
        <mxCell id="DVV-10IRJFf22m86ulkG-227" value="(1,n)" style="text;html=1;strokeColor=none;fillColor=none;align=center;verticalAlign=middle;whiteSpace=wrap;rounded=0;fontFamily=Helvetica;fontSize=9;fontColor=default;" parent="1" vertex="1">
          <mxGeometry x="482" y="163" width="30" height="20" as="geometry" />
        </mxCell>
        <mxCell id="DVV-10IRJFf22m86ulkG-228" value="(1,n)" style="text;html=1;strokeColor=none;fillColor=none;align=center;verticalAlign=middle;whiteSpace=wrap;rounded=0;fontFamily=Helvetica;fontSize=9;fontColor=default;" parent="1" vertex="1">
          <mxGeometry x="482" y="358" width="30" height="20" as="geometry" />
        </mxCell>
        <mxCell id="DVV-10IRJFf22m86ulkG-35" value="Nhà cung cấp&lt;br&gt;(NCC)" style="rounded=0;whiteSpace=wrap;html=1;fillColor=#d5e8d4;strokeColor=#82b366;" parent="1" vertex="1">
          <mxGeometry x="142.5" y="620.5" width="120" height="60" as="geometry" />
        </mxCell>
        <mxCell id="DVV-10IRJFf22m86ulkG-36" value="(1,n)" style="text;html=1;strokeColor=none;fillColor=none;align=center;verticalAlign=middle;whiteSpace=wrap;rounded=0;fontFamily=Helvetica;fontSize=9;fontColor=default;" parent="1" vertex="1">
          <mxGeometry x="168.75" y="600.5" width="30" height="20" as="geometry" />
        </mxCell>
        <mxCell id="DVV-10IRJFf22m86ulkG-229" value="(1,1)" style="text;html=1;strokeColor=none;fillColor=none;align=center;verticalAlign=middle;whiteSpace=wrap;rounded=0;fontFamily=Helvetica;fontSize=9;fontColor=default;" parent="1" vertex="1">
          <mxGeometry x="212.5" y="438" width="30" height="20" as="geometry" />
        </mxCell>
        <mxCell id="DVV-10IRJFf22m86ulkG-51" value="Nhân viên&lt;br&gt;(NV)" style="rounded=0;whiteSpace=wrap;html=1;fillColor=#d5e8d4;strokeColor=#82b366;" parent="1" vertex="1">
          <mxGeometry x="152.5" y="103" width="120" height="60" as="geometry" />
        </mxCell>
        <mxCell id="DVV-10IRJFf22m86ulkG-52" value="(1,n)" style="text;html=1;strokeColor=none;fillColor=none;align=center;verticalAlign=middle;whiteSpace=wrap;rounded=0;fontFamily=Helvetica;fontSize=9;fontColor=default;" parent="1" vertex="1">
          <mxGeometry x="272.5" y="113" width="30" height="20" as="geometry" />
        </mxCell>
        <mxCell id="DVV-10IRJFf22m86ulkG-208" value="Loại sản phẩm&lt;br&gt;(LSP)*" style="rounded=0;whiteSpace=wrap;html=1;fillColor=#d5e8d4;strokeColor=#82b366;" parent="1" vertex="1">
          <mxGeometry x="463.75" y="623" width="120" height="60" as="geometry" />
        </mxCell>
        <mxCell id="DVV-10IRJFf22m86ulkG-201" value="Hãng sản xuất&lt;br&gt;(NSX)" style="rounded=0;whiteSpace=wrap;html=1;fillColor=#d5e8d4;strokeColor=#82b366;" parent="1" vertex="1">
          <mxGeometry x="755.38" y="483" width="120" height="60" as="geometry" />
        </mxCell>
        <mxCell id="DVV-10IRJFf22m86ulkG-222" style="edgeStyle=none;shape=connector;rounded=0;orthogonalLoop=1;jettySize=auto;html=1;exitX=1;exitY=0.5;exitDx=0;exitDy=0;labelBackgroundColor=default;fontFamily=Helvetica;fontSize=11;fontColor=default;endArrow=none;strokeColor=default;" parent="1" source="DVV-10IRJFf22m86ulkG-202" target="DVV-10IRJFf22m86ulkG-201" edge="1">
          <mxGeometry relative="1" as="geometry" />
        </mxCell>
        <mxCell id="DVV-10IRJFf22m86ulkG-202" value="(0,n)" style="text;html=1;strokeColor=none;fillColor=none;align=center;verticalAlign=middle;whiteSpace=wrap;rounded=0;fontFamily=Helvetica;fontSize=9;fontColor=default;" parent="1" vertex="1">
          <mxGeometry x="725.38" y="493" width="30" height="20" as="geometry" />
        </mxCell>
        <mxCell id="DVV-10IRJFf22m86ulkG-92" value="(1,1)" style="text;html=1;strokeColor=none;fillColor=none;align=center;verticalAlign=middle;whiteSpace=wrap;rounded=0;fontFamily=Helvetica;fontSize=9;fontColor=default;" parent="1" vertex="1">
          <mxGeometry x="1100" y="163" width="30" height="20" as="geometry" />
        </mxCell>
        <mxCell id="DVV-10IRJFf22m86ulkG-67" value="Khách hàng &lt;br&gt;(KH)" style="rounded=0;whiteSpace=wrap;html=1;fillColor=#d5e8d4;strokeColor=#82b366;" parent="1" vertex="1">
          <mxGeometry x="758.13" y="103" width="120" height="60" as="geometry" />
        </mxCell>
        <mxCell id="DVV-10IRJFf22m86ulkG-68" value="(1,n)" style="text;html=1;strokeColor=none;fillColor=none;align=center;verticalAlign=middle;whiteSpace=wrap;rounded=0;fontFamily=Helvetica;fontSize=9;fontColor=default;" parent="1" vertex="1">
          <mxGeometry x="728.13" y="113" width="30" height="20" as="geometry" />
        </mxCell>
        <mxCell id="DVV-10IRJFf22m86ulkG-87" value="Chính sách&lt;br&gt;ưu đãi&lt;br&gt;(CSUĐ)" style="rounded=0;whiteSpace=wrap;html=1;fillColor=#d5e8d4;strokeColor=#82b366;" parent="1" vertex="1">
          <mxGeometry x="758.13" y="193" width="120" height="60" as="geometry" />
        </mxCell>
        <mxCell id="DVV-10IRJFf22m86ulkG-182" value="(1,n)" style="text;html=1;strokeColor=none;fillColor=none;align=center;verticalAlign=middle;whiteSpace=wrap;rounded=0;fontFamily=Helvetica;fontSize=9;fontColor=default;" parent="1" vertex="1">
          <mxGeometry x="727.5" y="203" width="30" height="20" as="geometry" />
        </mxCell>
        <mxCell id="DVV-10IRJFf22m86ulkG-213" value="Loại KH&lt;br&gt;(LKH)" style="rounded=0;whiteSpace=wrap;html=1;fillColor=#d5e8d4;strokeColor=#82b366;" parent="1" vertex="1">
          <mxGeometry x="1047" y="103" width="120" height="60" as="geometry" />
        </mxCell>
        <mxCell id="DVV-10IRJFf22m86ulkG-214" value="(0,n)" style="text;html=1;strokeColor=none;fillColor=none;align=center;verticalAlign=middle;whiteSpace=wrap;rounded=0;fontFamily=Helvetica;fontSize=9;fontColor=default;" parent="1" vertex="1">
          <mxGeometry x="1017" y="113" width="30" height="20" as="geometry" />
        </mxCell>
        <mxCell id="DVV-10IRJFf22m86ulkG-231" value="&lt;span&gt;số lượng nhập SP&lt;/span&gt;" style="ellipse;whiteSpace=wrap;html=1;fontSize=10;fillColor=#f8cecc;strokeColor=#b85450;fontStyle=0" parent="1" vertex="1">
          <mxGeometry x="367.5" y="303" width="52.5" height="35" as="geometry" />
        </mxCell>
        <mxCell id="DVV-10IRJFf22m86ulkG-233" value="(1,n)" style="text;html=1;strokeColor=none;fillColor=none;align=center;verticalAlign=middle;whiteSpace=wrap;rounded=0;fontFamily=Helvetica;fontSize=9;fontColor=default;" parent="1" vertex="1">
          <mxGeometry x="432.5" y="388" width="30" height="20" as="geometry" />
        </mxCell>
        <mxCell id="DVV-10IRJFf22m86ulkG-236" style="edgeStyle=none;shape=connector;rounded=0;orthogonalLoop=1;jettySize=auto;html=1;entryX=0;entryY=0;entryDx=0;entryDy=0;labelBackgroundColor=default;fontFamily=Helvetica;fontSize=10;fontColor=default;endArrow=none;strokeColor=default;" parent="1" source="DVV-10IRJFf22m86ulkG-235" target="DVV-10IRJFf22m86ulkG-196" edge="1">
          <mxGeometry relative="1" as="geometry" />
        </mxCell>
        <mxCell id="DVV-10IRJFf22m86ulkG-235" value="&lt;span&gt;số lượng &lt;br&gt;được mua SP&lt;/span&gt;" style="ellipse;whiteSpace=wrap;html=1;fontSize=10;fillColor=#f8cecc;strokeColor=#b85450;fontStyle=0" parent="1" vertex="1">
          <mxGeometry x="385" y="223" width="78.75" height="40" as="geometry" />
        </mxCell>
        <mxCell id="DVV-10IRJFf22m86ulkG-239" style="edgeStyle=none;shape=connector;rounded=0;orthogonalLoop=1;jettySize=auto;html=1;labelBackgroundColor=default;fontFamily=Helvetica;fontSize=10;fontColor=default;endArrow=none;strokeColor=default;entryX=0;entryY=1;entryDx=0;entryDy=0;" parent="1" source="DVV-10IRJFf22m86ulkG-238" target="DVV-10IRJFf22m86ulkG-89" edge="1">
          <mxGeometry relative="1" as="geometry">
            <mxPoint x="932.5" y="253" as="targetPoint" />
          </mxGeometry>
        </mxCell>
        <mxCell id="DVV-10IRJFf22m86ulkG-238" value="% trừ tiền" style="ellipse;whiteSpace=wrap;html=1;fontSize=9;fillColor=#f8cecc;strokeColor=#b85450;" parent="1" vertex="1">
          <mxGeometry x="908.1299999999999" y="303" width="52.5" height="35" as="geometry" />
        </mxCell>
        <mxCell id="DVV-10IRJFf22m86ulkG-240" value="* Sản phẩm: gồm nhiều sản phẩm cùng loại có cùng mã sản phẩm hoặc sản phẩm duy nhất. Vì vậy số lượng có thể lớn 1 và có thể được xuất cho nhiều hoá đơn." style="text;html=1;strokeColor=none;fillColor=none;align=left;verticalAlign=middle;whiteSpace=wrap;rounded=0;dashed=1;fontFamily=Helvetica;fontSize=10;fontColor=default;" parent="1" vertex="1">
          <mxGeometry x="522.5" y="331" width="210" height="30" as="geometry" />
        </mxCell>
        <mxCell id="DVV-10IRJFf22m86ulkG-241" value="* Loại sản phẩm:&amp;nbsp; gồm nhiều mã sản phẩm cùng loại. Ví dụ: loại dầu gội, loại &lt;br&gt;sữa tắm, ..." style="text;html=1;strokeColor=none;fillColor=none;align=left;verticalAlign=middle;whiteSpace=wrap;rounded=0;dashed=1;fontFamily=Helvetica;fontSize=10;fontColor=default;" parent="1" vertex="1">
          <mxGeometry x="541.5" y="693" width="188.5" height="30" as="geometry" />
        </mxCell>
        <mxCell id="DVV-10IRJFf22m86ulkG-243" value="* Tuỳ vào loại khách hàng mà chính sách ưu đãi sẽ áp dụng % trừ tiền" style="text;html=1;strokeColor=none;fillColor=none;align=left;verticalAlign=middle;whiteSpace=wrap;rounded=0;dashed=1;fontFamily=Helvetica;fontSize=10;fontColor=default;" parent="1" vertex="1">
          <mxGeometry x="969.81" y="323.5" width="124.38" height="45" as="geometry" />
        </mxCell>
      </root>
    </mxGraphModel>
  </diagram>
</mxfile>
